<svg xmlns="http://www.w3.org/2000/svg" viewBox="653.995 3459.812 452.812 371.04">
  <defs>
    <style>
      .cls-1 {
        fill: #d87d15;
      }

      .cls-2 {
        fill: #f3b234;
      }

      .cls-3 {
        fill: #f9e8b0;
      }

      .cls-4 {
        fill: #e8d296;
      }

      .cls-5 {
        fill: #772f16;
      }

      .cls-6 {
        fill: #9d3c1b;
      }

      .cls-7 {
        fill: #8dce1d;
      }

      .cls-8 {
        fill: #eea10b;
      }

      .cls-9 {
        fill: #ffdc4e;
      }
    </style>
  </defs>
  <g id="Group_365" data-name="Group 365" transform="translate(240)">
    <g id="Group_210" data-name="Group 210" transform="translate(0 -2400)">
      <g id="Group_196" data-name="Group 196" transform="translate(413.995 5928)">
        <path id="Path_1581" data-name="Path 1581" class="cls-1" d="M237.475,104.976,82.857,15.932A35.271,35.271,0,0,0,65.6,11.1V275.815a34.285,34.285,0,0,0,17.257-4.832l202.937-117a12.169,12.169,0,0,0,6.212-10.354h0V104.976H237.475Z" transform="translate(160.806 27.037)"/>
        <path id="Path_1582" data-name="Path 1582" class="cls-2" d="M54.531,104.976,208.8,15.932A35.271,35.271,0,0,1,226.061,11.1V275.815a34.285,34.285,0,0,1-17.257-4.832L6.212,154.329A12.169,12.169,0,0,1,0,143.975H0V105.321H54.531Z" transform="translate(0 27.037)"/>
        <path id="Path_1583" data-name="Path 1583" class="cls-3" d="M243.479,259.761l202.937-117a12.283,12.283,0,0,0,0-21.053l-202.937-117a34.929,34.929,0,0,0-34.858,0l-202.592,117a12.283,12.283,0,0,0,0,21.053l202.937,117A34.286,34.286,0,0,0,243.479,259.761Z" transform="translate(0.184 -0.05)"/>
        <ellipse id="Ellipse_692" data-name="Ellipse 692" class="cls-4" cx="8.973" cy="4.832" rx="8.973" ry="4.832" transform="translate(209.149 115.101)"/>
        <ellipse id="Ellipse_693" data-name="Ellipse 693" class="cls-4" cx="15.186" cy="8.283" rx="15.186" ry="8.283" transform="translate(129.769 145.818)"/>
        <ellipse id="Ellipse_694" data-name="Ellipse 694" class="cls-4" cx="5.867" cy="3.451" rx="5.867" ry="3.451" transform="translate(281.972 72.65)"/>
        <ellipse id="Ellipse_695" data-name="Ellipse 695" class="cls-4" cx="5.867" cy="3.451" rx="5.867" ry="3.451" transform="translate(56.602 125.455)"/>
        <ellipse id="Ellipse_696" data-name="Ellipse 696" class="cls-4" cx="10.699" cy="5.867" rx="10.699" ry="5.867" transform="translate(266.096 135.464)"/>
        <ellipse id="Ellipse_697" data-name="Ellipse 697" class="cls-4" cx="8.628" cy="4.832" rx="8.628" ry="4.832" transform="translate(226.061 208.287)"/>
        <ellipse id="Ellipse_698" data-name="Ellipse 698" class="cls-4" cx="12.425" cy="6.903" rx="12.425" ry="6.903" transform="translate(318.901 92.668)"/>
        <ellipse id="Ellipse_699" data-name="Ellipse 699" class="cls-4" cx="10.699" cy="5.867" rx="10.699" ry="5.867" transform="translate(108.371 100.606)"/>
        <ellipse id="Ellipse_700" data-name="Ellipse 700" class="cls-4" cx="5.867" cy="3.106" rx="5.867" ry="3.106" transform="translate(266.096 164.455)"/>
        <ellipse id="Ellipse_701" data-name="Ellipse 701" class="cls-4" cx="5.867" cy="3.106" rx="5.867" ry="3.106" transform="translate(200.176 38.482)"/>
        <ellipse id="Ellipse_702" data-name="Ellipse 702" class="cls-4" cx="8.283" cy="4.487" rx="8.283" ry="4.487" transform="translate(160.141 184.473)"/>
        <ellipse id="Ellipse_703" data-name="Ellipse 703" class="cls-4" cx="8.283" cy="4.487" rx="8.283" ry="4.487" transform="translate(234.689 58.845)"/>
        <ellipse id="Ellipse_704" data-name="Ellipse 704" class="cls-4" cx="8.283" cy="4.487" rx="8.283" ry="4.487" transform="translate(340.644 143.057)"/>
        <ellipse id="Ellipse_705" data-name="Ellipse 705" class="cls-4" cx="5.867" cy="3.106" rx="5.867" ry="3.106" transform="translate(183.265 80.588)"/>
        <ellipse id="Ellipse_706" data-name="Ellipse 706" class="cls-4" cx="5.867" cy="3.106" rx="5.867" ry="3.106" transform="translate(288.185 185.853)"/>
        <ellipse id="Ellipse_707" data-name="Ellipse 707" class="cls-4" cx="5.867" cy="3.106" rx="5.867" ry="3.106" transform="translate(374.812 125.8)"/>
      </g>
      <g id="Group_197" data-name="Group 197" transform="translate(479.705 5961.856)">
        <path id="Path_1584" data-name="Path 1584" class="cls-5" d="M316.14,76.807C298.884,36.426,235.725,6.4,160.486,6.4S21.743,36.426,4.487,76.807H0V98.9c0,51.079,71.787,92.84,160.486,92.84s160.486-41.416,160.486-92.5V77.152H316.14Z" transform="translate(0 15.688)"/>
        <ellipse id="Ellipse_708" data-name="Ellipse 708" class="cls-6" cx="160.486" cy="92.495" rx="160.486" ry="92.495" transform="translate(0 0)"/>
        <ellipse id="Ellipse_709" data-name="Ellipse 709" class="cls-5" cx="7.248" cy="4.142" rx="7.248" ry="4.142" transform="translate(231.583 53.495)"/>
        <ellipse id="Ellipse_710" data-name="Ellipse 710" class="cls-5" cx="7.248" cy="4.142" rx="7.248" ry="4.142" transform="translate(180.849 17.947)"/>
        <ellipse id="Ellipse_711" data-name="Ellipse 711" class="cls-5" cx="7.248" cy="4.142" rx="7.248" ry="4.142" transform="translate(162.557 79.725)"/>
        <ellipse id="Ellipse_712" data-name="Ellipse 712" class="cls-5" cx="7.248" cy="4.142" rx="7.248" ry="4.142" transform="translate(60.398 110.442)"/>
        <ellipse id="Ellipse_713" data-name="Ellipse 713" class="cls-5" cx="7.248" cy="4.142" rx="7.248" ry="4.142" transform="translate(270.238 92.495)"/>
        <ellipse id="Ellipse_714" data-name="Ellipse 714" class="cls-5" cx="7.248" cy="4.142" rx="7.248" ry="4.142" transform="translate(141.849 71.787)"/>
        <ellipse id="Ellipse_715" data-name="Ellipse 715" class="cls-5" cx="7.248" cy="4.142" rx="7.248" ry="4.142" transform="translate(106.646 38.31)"/>
        <ellipse id="Ellipse_716" data-name="Ellipse 716" class="cls-5" cx="7.248" cy="4.142" rx="7.248" ry="4.142" transform="translate(197.76 110.442)"/>
        <ellipse id="Ellipse_717" data-name="Ellipse 717" class="cls-5" cx="7.248" cy="4.142" rx="7.248" ry="4.142" transform="translate(221.919 140.123)"/>
        <ellipse id="Ellipse_718" data-name="Ellipse 718" class="cls-5" cx="7.248" cy="4.142" rx="7.248" ry="4.142" transform="translate(162.557 135.982)"/>
        <ellipse id="Ellipse_719" data-name="Ellipse 719" class="cls-5" cx="7.248" cy="4.142" rx="7.248" ry="4.142" transform="translate(86.628 135.982)"/>
        <ellipse id="Ellipse_720" data-name="Ellipse 720" class="cls-5" cx="7.248" cy="4.142" rx="7.248" ry="4.142" transform="translate(56.256 67.646)"/>
      </g>
      <g id="Group_198" data-name="Group 198" transform="translate(450.301 5910.537)">
        <path id="Path_1585" data-name="Path 1585" class="cls-7" d="M43.832,212.346c4.832,0,4.832,10.009,9.664,10.009s4.832,1.035,9.664,1.035,4.832-4.832,9.664-4.832,4.832,4.142,9.664,4.142,4.832-8.283,9.664-8.283,4.832,8.628,9.664,8.628,4.832-10.354,9.664-10.354,4.832,13.805,9.664,13.805,4.832-12.08,9.664-12.08,4.832,2.071,9.664,2.071,4.832-4.142,9.664-4.142,4.832,4.832,9.664,4.832,4.832,6.557,9.664,6.557,4.832-3.8,9.664-3.8,4.832,5.867,9.664,5.867,4.832-5.867,9.664-5.867S203.282,212,208.114,212s4.832,6.212,9.664,6.212,4.832-1.726,9.664-1.726,4.832,1.381,9.664,1.381,4.832-4.142,9.664-4.142,4.832,7.593,9.664,7.593,4.832,2.071,9.664,2.071,4.832-4.487,9.664-4.487,4.832-5.522,9.664-5.522,4.832,1.381,9.664,1.381,4.832,3.106,9.664,3.106,4.832,6.9,9.664,6.9,4.832-13.115,9.664-13.115,4.832-.345,9.664-.345c3.451,0,5.522,1.726,8.628,1.035,3.451-1.035,11.044,8.283,13.805,6.557s1.035-10.7,3.451-13.115,5.867-3.451,7.593-6.557c1.726-2.761-3.8-7.938-2.761-11.044.69-3.106,1.38-4.832,1.38-8.283,0-4.832,6.212-4.832,6.212-9.664s-.345-4.832-.345-9.664,7.938-4.832,7.938-9.664-13.805-4.832-13.805-9.664.345-4.832.345-9.664v-9.664c0-4.832,13.115-4.832,13.115-9.664s-7.248-4.832-7.248-9.664,6.9-4.832,6.9-9.664-1.035-4.832-1.035-9.664-6.9-4.832-6.9-9.664,2.071-4.832,2.071-9.664,3.451-4.832,3.451-9.664-8.973-4.832-8.973-9.664c0-3.451,5.522-6.9,4.832-10.009-1.035-3.451-1.38-6.9-3.106-10.009-1.726-2.761-7.938-2.071-10.354-4.487a28.785,28.785,0,0,0-7.248-5.522c-2.761-1.726-3.106-9.319-6.558-10.009-3.106-.69-7.248,5.867-10.7,5.867-4.832,0-4.832-6.212-9.664-6.212s-4.832,3.451-9.664,3.451-4.832,4.832-9.664,4.832-4.832-9.664-9.664-9.664-4.832,4.832-9.664,4.832-4.832,3.8-9.664,3.8-4.832-8.973-9.664-8.973S261.954-.6,257.123-.6s-4.832,6.557-9.664,6.557S242.627.781,237.8.781s-4.832,5.867-9.664,5.867-4.832-4.142-9.664-4.142-4.832,6.9-9.664,6.9-4.832-5.177-9.664-5.177S194.309.781,189.477.781s-4.832,10.354-9.664,10.354-4.832-2.071-9.664-2.071-4.832-7.938-9.664-7.938-4.832,1.381-9.664,1.381c-5.867,1.726-5.867,9.319-10.7,9.319S135.291,10.1,130.46,10.1s-4.832-5.867-9.664-5.867-4.832-2.416-9.664-2.416-4.832,6.212-9.664,6.212S96.637,1.816,91.8,1.816s-4.832,2.761-9.664,2.761-4.832,1.035-9.664,1.035-4.832,8.628-9.664,8.628-4.832,1.035-9.664,1.035S48.318,1.471,43.487,1.471c-3.451,0-4.832,13.805-8.283,14.841S23.814,5.957,20.708,7.683c-2.416,1.726,2.416,13.46,0,15.876s-7.248,1.726-8.973,4.832c-1.381,2.761-3.106,5.522-3.8,8.628S.69,43.232.69,46.683c0,4.832-.345,4.832-.345,9.664s9.664,4.832,9.664,9.664v9.664c0,4.832-3.451,4.832-3.451,9.664S8.283,90.169,8.283,95,0,99.833,0,104.665s7.593,4.832,7.593,9.664-2.416,4.832-2.416,9.664,5.522,4.832,5.522,9.664-4.832,4.832-4.832,9.664,6.557,4.832,6.557,9.664c-.345,3.8-8.973,3.8-8.973,8.628s5.177,4.832,5.177,9.664-4.142,4.832-4.142,9.664c0,3.451,2.071,6.558,2.761,9.664,1.035,3.451-.69,7.593,1.035,10.7a49.385,49.385,0,0,0,6.557,8.283c2.416,2.416,6.212,3.451,9.319,4.832,2.761,1.726,7.593-3.106,11.044-2.071S40.38,212.346,43.832,212.346Z" transform="translate(0 0.6)"/>
      </g>
    </g>
    <g id="Group_121" data-name="Group 121" transform="translate(428.764 3459.812)">
      <path id="Path_1157" data-name="Path 1157" class="cls-8" d="M407.945,113.342,222.955,6.351A25.834,25.834,0,0,0,210.53,2.9a22.532,22.532,0,0,0-12.425,3.451L13.805,113.342H0V123.7a3.8,3.8,0,0,0,2.071,3.451L198.45,240.7a25.834,25.834,0,0,0,12.425,3.451A22.532,22.532,0,0,0,223.3,240.7l196.38-113.548a3.8,3.8,0,0,0,2.071-3.451V113.342Z" transform="translate(0 7.023)"/>
      <path id="Path_1158" data-name="Path 1158" class="cls-9" d="M222.955,237.389l196.38-113.548a4.206,4.206,0,0,0,0-7.248L222.955,3.39a23.988,23.988,0,0,0-24.5,0L2.071,116.593a4.206,4.206,0,0,0,0,7.248L198.45,237.389A25.717,25.717,0,0,0,222.955,237.389Z" transform="translate(0 -0.025)"/>
    </g>
  </g>
</svg>
