<svg xmlns="http://www.w3.org/2000/svg" viewBox="668.764 3459.812 421.75 251.169">
  <defs>
    <style>
      .cls-1 {
        fill: #eea10b;
      }

      .cls-2 {
        fill: #ffdc4e;
      }
    </style>
  </defs>
  <g id="Group_121" data-name="Group 121" transform="translate(668.764 3459.812)">
    <path id="Path_1157" data-name="Path 1157" class="cls-1" d="M407.945,113.342,222.955,6.351A25.834,25.834,0,0,0,210.53,2.9a22.532,22.532,0,0,0-12.425,3.451L13.805,113.342H0V123.7a3.8,3.8,0,0,0,2.071,3.451L198.45,240.7a25.834,25.834,0,0,0,12.425,3.451A22.532,22.532,0,0,0,223.3,240.7l196.38-113.548a3.8,3.8,0,0,0,2.071-3.451V113.342Z" transform="translate(0 7.023)"/>
    <path id="Path_1158" data-name="Path 1158" class="cls-2" d="M222.955,237.389l196.38-113.548a4.206,4.206,0,0,0,0-7.248L222.955,3.39a23.988,23.988,0,0,0-24.5,0L2.071,116.593a4.206,4.206,0,0,0,0,7.248L198.45,237.389A25.717,25.717,0,0,0,222.955,237.389Z" transform="translate(0 -0.025)"/>
  </g>
</svg>
