<svg xmlns="http://www.w3.org/2000/svg" viewBox="690.301 2666.537 379.644 227.096">
  <defs>
    <style>
      .cls-1 {
        fill: #8dce1d;
      }
    </style>
  </defs>
  <g id="Group_58" data-name="Group 58" transform="translate(690.301 2666.537)">
    <path id="Path_829" data-name="Path 829" class="cls-1" d="M43.832,212.346c4.832,0,4.832,10.009,9.664,10.009s4.832,1.035,9.664,1.035,4.832-4.832,9.664-4.832,4.832,4.142,9.664,4.142,4.832-8.283,9.664-8.283,4.832,8.628,9.664,8.628,4.832-10.354,9.664-10.354,4.832,13.805,9.664,13.805,4.832-12.08,9.664-12.08,4.832,2.071,9.664,2.071,4.832-4.142,9.664-4.142,4.832,4.832,9.664,4.832,4.832,6.557,9.664,6.557,4.832-3.8,9.664-3.8,4.832,5.867,9.664,5.867,4.832-5.867,9.664-5.867S203.282,212,208.114,212s4.832,6.212,9.664,6.212,4.832-1.726,9.664-1.726,4.832,1.381,9.664,1.381,4.832-4.142,9.664-4.142,4.832,7.593,9.664,7.593,4.832,2.071,9.664,2.071,4.832-4.487,9.664-4.487,4.832-5.522,9.664-5.522,4.832,1.381,9.664,1.381,4.832,3.106,9.664,3.106,4.832,6.9,9.664,6.9,4.832-13.115,9.664-13.115,4.832-.345,9.664-.345c3.451,0,5.522,1.726,8.628,1.035,3.451-1.035,11.044,8.283,13.805,6.557s1.035-10.7,3.451-13.115,5.867-3.451,7.593-6.557c1.726-2.761-3.8-7.938-2.761-11.044.69-3.106,1.38-4.832,1.38-8.283,0-4.832,6.212-4.832,6.212-9.664s-.345-4.832-.345-9.664,7.938-4.832,7.938-9.664-13.805-4.832-13.805-9.664.345-4.832.345-9.664v-9.664c0-4.832,13.115-4.832,13.115-9.664s-7.248-4.832-7.248-9.664,6.9-4.832,6.9-9.664-1.035-4.832-1.035-9.664-6.9-4.832-6.9-9.664,2.071-4.832,2.071-9.664,3.451-4.832,3.451-9.664-8.973-4.832-8.973-9.664c0-3.451,5.522-6.9,4.832-10.009-1.035-3.451-1.38-6.9-3.106-10.009-1.726-2.761-7.938-2.071-10.354-4.487a28.785,28.785,0,0,0-7.248-5.522c-2.761-1.726-3.106-9.319-6.558-10.009-3.106-.69-7.248,5.867-10.7,5.867-4.832,0-4.832-6.212-9.664-6.212s-4.832,3.451-9.664,3.451-4.832,4.832-9.664,4.832-4.832-9.664-9.664-9.664-4.832,4.832-9.664,4.832-4.832,3.8-9.664,3.8-4.832-8.973-9.664-8.973S261.954-.6,257.123-.6s-4.832,6.557-9.664,6.557S242.627.781,237.8.781s-4.832,5.867-9.664,5.867-4.832-4.142-9.664-4.142-4.832,6.9-9.664,6.9-4.832-5.177-9.664-5.177S194.309.781,189.477.781s-4.832,10.354-9.664,10.354-4.832-2.071-9.664-2.071-4.832-7.938-9.664-7.938-4.832,1.381-9.664,1.381c-5.867,1.726-5.867,9.319-10.7,9.319S135.291,10.1,130.46,10.1s-4.832-5.867-9.664-5.867-4.832-2.416-9.664-2.416-4.832,6.212-9.664,6.212S96.637,1.816,91.8,1.816s-4.832,2.761-9.664,2.761-4.832,1.035-9.664,1.035-4.832,8.628-9.664,8.628-4.832,1.035-9.664,1.035S48.318,1.471,43.487,1.471c-3.451,0-4.832,13.805-8.283,14.841S23.814,5.957,20.708,7.683c-2.416,1.726,2.416,13.46,0,15.876s-7.248,1.726-8.973,4.832c-1.381,2.761-3.106,5.522-3.8,8.628S.69,43.232.69,46.683c0,4.832-.345,4.832-.345,9.664s9.664,4.832,9.664,9.664v9.664c0,4.832-3.451,4.832-3.451,9.664S8.283,90.169,8.283,95,0,99.833,0,104.665s7.593,4.832,7.593,9.664-2.416,4.832-2.416,9.664,5.522,4.832,5.522,9.664-4.832,4.832-4.832,9.664,6.557,4.832,6.557,9.664c-.345,3.8-8.973,3.8-8.973,8.628s5.177,4.832,5.177,9.664-4.142,4.832-4.142,9.664c0,3.451,2.071,6.558,2.761,9.664,1.035,3.451-.69,7.593,1.035,10.7a49.385,49.385,0,0,0,6.557,8.283c2.416,2.416,6.212,3.451,9.319,4.832,2.761,1.726,7.593-3.106,11.044-2.071S40.38,212.346,43.832,212.346Z" transform="translate(0 0.6)"/>
  </g>
</svg>
