<svg xmlns="http://www.w3.org/2000/svg" viewBox="683.535 4234.581 393.104 225.716">
  <defs>
    <style>
      .cls-1 {
        fill: #df2822;
      }

      .cls-2 {
        fill: #f85549;
      }

      .cls-3 {
        fill: #fea995;
      }

      .cls-4 {
        fill: #e12922;
      }

      .cls-5 {
        fill: #fdc395;
      }
    </style>
  </defs>
  <g id="Group_68" data-name="Group 68" transform="translate(683.535 4234.581)">
    <g id="Group_61" data-name="Group 61" transform="translate(127.699 132.875)">
      <path id="Path_832" data-name="Path 832" class="cls-1" d="M170.221,68.63c-9.664-15.186-34.858-26.23-64.54-26.23S50.46,53.444,41.142,68.63H37V82.09c0,21.743,30.717,39.69,68.681,39.69s68.681-17.6,68.681-39.69V68.63Z" transform="translate(-37 -28.94)"/>
      <ellipse id="Ellipse_189" data-name="Ellipse 189" class="cls-2" cx="68.681" cy="39.69" rx="68.681" ry="39.69" transform="translate(0)"/>
      <ellipse id="Ellipse_190" data-name="Ellipse 190" class="cls-3" cx="32.787" cy="18.982" rx="32.787" ry="18.982" transform="translate(35.894 20.708)"/>
      <g id="Group_60" data-name="Group 60" transform="translate(13.46 7.938)">
        <path id="Path_833" data-name="Path 833" class="cls-4" d="M78.268,53.57a47.069,47.069,0,0,1,17.6,3.106,4.084,4.084,0,0,0,3.451-.345l6.9-3.8c3.106-1.726,2.761-6.557-.69-7.593A83.782,83.782,0,0,0,78.268,40.8,85.277,85.277,0,0,0,51,44.942c-3.451,1.035-3.8,5.867-.69,7.593l6.9,3.8a4.084,4.084,0,0,0,3.451.345A45.822,45.822,0,0,1,78.268,53.57Z" transform="translate(-23.047 -40.8)"/>
        <path id="Path_834" data-name="Path 834" class="cls-4" d="M94.139,44.742l-8.973,5.177a4.15,4.15,0,0,0-1.035,6.212,12.826,12.826,0,0,1,2.761,7.593c0,8.973-11.044,16.566-25.54,18.292A4.1,4.1,0,0,0,57.9,86.157v4.832a4.076,4.076,0,0,0,4.487,4.142c26.575-2.416,46.938-15.531,46.938-31.407,0-6.9-3.8-13.46-10.7-18.637A4.244,4.244,0,0,0,94.139,44.742Z" transform="translate(0.772 -32.317)"/>
        <path id="Path_835" data-name="Path 835" class="cls-4" d="M63.333,63.824a12.826,12.826,0,0,1,2.761-7.593,4.15,4.15,0,0,0-1.035-6.212l-8.973-5.177a4.244,4.244,0,0,0-4.487.345c-6.557,5.177-10.7,11.734-10.7,18.637,0,15.876,20.363,28.991,46.938,31.407a4.076,4.076,0,0,0,4.487-4.142V86.257a4.1,4.1,0,0,0-3.451-4.142C74.378,80.045,63.333,72.8,63.333,63.824Z" transform="translate(-40.9 -32.072)"/>
      </g>
      <path id="Path_836" data-name="Path 836" class="cls-5" d="M58.371,49.683a9.15,9.15,0,0,1-1.726-2.071,4.378,4.378,0,0,1-.345-2.071,4.377,4.377,0,0,1,.345-2.071A4.6,4.6,0,0,1,58.371,41.4,4.6,4.6,0,0,1,60.1,43.471a4.377,4.377,0,0,1,.345,2.071,4.377,4.377,0,0,1-.345,2.071C59.406,48.3,59.061,48.993,58.371,49.683Z" transform="translate(10.31 -31.391)"/>
      <path id="Path_837" data-name="Path 837" class="cls-5" d="M59.99,49.638a8.123,8.123,0,0,1-.69-2.761c0-.69.345-1.381.345-2.071a3.445,3.445,0,0,1,1.381-1.726A5.562,5.562,0,0,1,63.442,41.7a8.123,8.123,0,0,1,.69,2.761c0,.69-.345,1.381-.345,2.071a3.446,3.446,0,0,1-1.381,1.726A5.563,5.563,0,0,1,59.99,49.638Z" transform="translate(17.664 -30.656)"/>
      <path id="Path_838" data-name="Path 838" class="cls-5" d="M61.9,49.6a6.5,6.5,0,0,1,.69-2.761,6.345,6.345,0,0,1,3.451-3.451A6.5,6.5,0,0,1,68.8,42.7a6.5,6.5,0,0,1-.69,2.761,6.345,6.345,0,0,1-3.451,3.451C63.971,49.6,63.28,49.6,61.9,49.6Z" transform="translate(24.038 -28.204)"/>
      <path id="Path_839" data-name="Path 839" class="cls-5" d="M66.4,50.242a9.3,9.3,0,0,1,2.761-2.416,12.259,12.259,0,0,1,3.106-1.381,10.64,10.64,0,0,1,3.451-.345,8.091,8.091,0,0,1,3.8.69,9.3,9.3,0,0,1-2.761,2.416,12.259,12.259,0,0,1-3.106,1.381,10.64,10.64,0,0,1-3.451.345A7.431,7.431,0,0,1,66.4,50.242Z" transform="translate(35.069 -19.87)"/>
      <path id="Path_840" data-name="Path 840" class="cls-5" d="M67.3,50.961a11.487,11.487,0,0,1,3.451-2.071A12.263,12.263,0,0,1,74.2,48.2h3.451a16.824,16.824,0,0,1,3.8,1.381A11.487,11.487,0,0,1,78,51.651a12.262,12.262,0,0,1-3.451.69H71.1A12.363,12.363,0,0,1,67.3,50.961Z" transform="translate(37.275 -14.722)"/>
      <path id="Path_841" data-name="Path 841" class="cls-5" d="M67.3,51.926a16.824,16.824,0,0,1,3.8-1.381,12.947,12.947,0,0,1,3.451-.345A12.262,12.262,0,0,1,78,50.89a16.121,16.121,0,0,1,3.451,1.726A16.825,16.825,0,0,1,77.654,54a12.948,12.948,0,0,1-3.451.345,12.262,12.262,0,0,1-3.451-.69A10.654,10.654,0,0,1,67.3,51.926Z" transform="translate(37.275 -9.82)"/>
      <path id="Path_842" data-name="Path 842" class="cls-5" d="M66.6,52.89a7.431,7.431,0,0,1,3.8-.69,11.741,11.741,0,0,1,3.451.345,12.26,12.26,0,0,1,3.106,1.381,9.3,9.3,0,0,1,2.761,2.416,7.431,7.431,0,0,1-3.8.69,11.741,11.741,0,0,1-3.451-.345,12.259,12.259,0,0,1-3.106-1.381A9.3,9.3,0,0,1,66.6,52.89Z" transform="translate(35.559 -4.917)"/>
      <path id="Path_843" data-name="Path 843" class="cls-5" d="M65.1,53.984a5.851,5.851,0,0,1,3.451,0,5.567,5.567,0,0,1,3.106,1.035,12.107,12.107,0,0,1,2.761,1.726,19.144,19.144,0,0,1,2.071,2.761,5.851,5.851,0,0,1-3.451,0,5.567,5.567,0,0,1-3.106-1.035,12.107,12.107,0,0,1-2.761-1.726A4.287,4.287,0,0,1,65.1,53.984Z" transform="translate(31.882 -1.179)"/>
      <path id="Path_844" data-name="Path 844" class="cls-5" d="M62.9,55a8.569,8.569,0,0,1,3.106.345,5.563,5.563,0,0,1,2.416,1.381A9.152,9.152,0,0,1,70.148,58.8,6.552,6.552,0,0,1,71.183,61.9a8.569,8.569,0,0,1-3.106-.345,5.563,5.563,0,0,1-2.416-1.381,9.15,9.15,0,0,1-1.726-2.071A4.818,4.818,0,0,1,62.9,55Z" transform="translate(26.489 1.947)"/>
      <path id="Path_845" data-name="Path 845" class="cls-5" d="M60.445,55.8a16.825,16.825,0,0,1,2.416,1.035,3.446,3.446,0,0,1,1.381,1.726,4.906,4.906,0,0,1,.69,2.071,8.577,8.577,0,0,1-.345,2.761,16.826,16.826,0,0,1-2.416-1.035,3.446,3.446,0,0,1-1.381-1.726,4.905,4.905,0,0,1-.69-2.071A8.577,8.577,0,0,1,60.445,55.8Z" transform="translate(19.625 3.908)"/>
      <path id="Path_846" data-name="Path 846" class="cls-5" d="M57.142,49.638a5.563,5.563,0,0,1-2.416-1.381,6.059,6.059,0,0,1-1.381-1.726A4.378,4.378,0,0,1,53,44.461a4.641,4.641,0,0,1,.69-2.761,5.562,5.562,0,0,1,2.416,1.381,6.059,6.059,0,0,1,1.381,1.726,4.377,4.377,0,0,1,.345,2.071A4.15,4.15,0,0,1,57.142,49.638Z" transform="translate(2.221 -30.656)"/>
      <path id="Path_847" data-name="Path 847" class="cls-5" d="M56.7,49.6a6.5,6.5,0,0,1-2.761-.69c-.69-.345-1.381-1.035-2.071-1.381a7.22,7.22,0,0,1-1.381-2.071A6.5,6.5,0,0,1,49.8,42.7a6.5,6.5,0,0,1,2.761.69c.69.345,1.381,1.035,2.071,1.381a7.22,7.22,0,0,1,1.381,2.071A6.5,6.5,0,0,1,56.7,49.6Z" transform="translate(-5.623 -28.204)"/>
      <path id="Path_848" data-name="Path 848" class="cls-5" d="M56.615,50.242a7.431,7.431,0,0,1-3.8.69c-1.035,0-2.416-.345-3.451-.345a12.259,12.259,0,0,1-3.106-1.381A9.3,9.3,0,0,1,43.5,46.79a7.431,7.431,0,0,1,3.8-.69c1.035,0,2.416.345,3.451.345a12.259,12.259,0,0,1,3.106,1.381A9.3,9.3,0,0,1,56.615,50.242Z" transform="translate(-21.066 -19.87)"/>
      <path id="Path_849" data-name="Path 849" class="cls-5" d="M56.45,51.145a16.824,16.824,0,0,1-3.8,1.381,5.851,5.851,0,0,1-3.451,0,12.262,12.262,0,0,1-3.451-.69A9.2,9.2,0,0,1,42.3,49.764a16.825,16.825,0,0,1,3.8-1.381,5.851,5.851,0,0,1,3.451,0,12.262,12.262,0,0,1,3.451.69A7.161,7.161,0,0,1,56.45,51.145Z" transform="translate(-24.008 -14.906)"/>
      <path id="Path_850" data-name="Path 850" class="cls-5" d="M56.45,51.926A8.127,8.127,0,0,1,53,53.651a12.262,12.262,0,0,1-3.451.69A11.742,11.742,0,0,1,46.1,54a16.823,16.823,0,0,1-3.8-1.381,8.126,8.126,0,0,1,3.451-1.726A12.263,12.263,0,0,1,49.2,50.2a11.741,11.741,0,0,1,3.451.345A16.825,16.825,0,0,1,56.45,51.926Z" transform="translate(-24.008 -9.82)"/>
      <path id="Path_851" data-name="Path 851" class="cls-5" d="M56.415,52.89a17.285,17.285,0,0,1-2.761,2.416,12.259,12.259,0,0,1-3.106,1.381,10.64,10.64,0,0,1-3.451.345,17.807,17.807,0,0,1-3.8-.69,17.287,17.287,0,0,1,2.761-2.416,12.26,12.26,0,0,1,3.106-1.381,10.64,10.64,0,0,1,3.451-.345A6.827,6.827,0,0,1,56.415,52.89Z" transform="translate(-21.557 -4.917)"/>
      <path id="Path_852" data-name="Path 852" class="cls-5" d="M56.789,53.909a9.529,9.529,0,0,1-2.071,2.761A7.515,7.515,0,0,1,51.958,58.4l-3.106,1.035a11.506,11.506,0,0,1-3.451,0,9.529,9.529,0,0,1,2.071-2.761,7.515,7.515,0,0,1,2.761-1.726l3.106-1.035A11.505,11.505,0,0,1,56.789,53.909Z" transform="translate(-16.409 -1.104)"/>
      <path id="Path_853" data-name="Path 853" class="cls-5" d="M56.438,55c0,1.381-.69,2.071-1.035,3.106a9.15,9.15,0,0,1-1.726,2.071,5.563,5.563,0,0,1-2.416,1.381A6.728,6.728,0,0,1,48.5,61.9c0-1.381.69-2.071,1.035-3.106a9.15,9.15,0,0,1,1.726-2.071,5.563,5.563,0,0,1,2.416-1.381C54.367,55.345,55.4,55,56.438,55Z" transform="translate(-8.81 1.947)"/>
      <path id="Path_854" data-name="Path 854" class="cls-5" d="M56.687,55.8a8.577,8.577,0,0,1,.345,2.761,4.905,4.905,0,0,1-.69,2.071,7.528,7.528,0,0,1-1.381,1.726,5.154,5.154,0,0,1-2.416,1.035,8.578,8.578,0,0,1-.345-2.761,4.905,4.905,0,0,1,.69-2.071,7.528,7.528,0,0,1,1.381-1.726A8.247,8.247,0,0,1,56.687,55.8Z" transform="translate(0.26 3.908)"/>
    </g>
    <g id="Group_63" data-name="Group 63" transform="translate(127.699)">
      <path id="Path_855" data-name="Path 855" class="cls-1" d="M170.221,30.13C160.557,14.944,135.362,3.9,105.681,3.9S50.46,14.944,41.142,30.13H37V43.59c0,21.743,30.717,39.69,68.681,39.69s68.681-17.6,68.681-39.69V30.13Z" transform="translate(-37 9.56)"/>
      <ellipse id="Ellipse_191" data-name="Ellipse 191" class="cls-2" cx="68.681" cy="39.69" rx="68.681" ry="39.69" transform="translate(0)"/>
      <ellipse id="Ellipse_192" data-name="Ellipse 192" class="cls-3" cx="32.787" cy="18.982" rx="32.787" ry="18.982" transform="translate(35.894 20.708)"/>
      <g id="Group_62" data-name="Group 62" transform="translate(13.46 7.938)">
        <path id="Path_856" data-name="Path 856" class="cls-4" d="M78.268,15.07a47.069,47.069,0,0,1,17.6,3.106,4.084,4.084,0,0,0,3.451-.345l6.9-3.8c3.106-1.726,2.761-6.557-.69-7.593A83.782,83.782,0,0,0,78.268,2.3,85.277,85.277,0,0,0,51,6.442c-3.451,1.035-3.8,5.867-.69,7.593l6.9,3.8a4.084,4.084,0,0,0,3.451.345A53.457,53.457,0,0,1,78.268,15.07Z" transform="translate(-23.047 -2.3)"/>
        <path id="Path_857" data-name="Path 857" class="cls-4" d="M94.139,6.444l-8.973,5.177a4.15,4.15,0,0,0-1.035,6.212,12.826,12.826,0,0,1,2.761,7.593c0,8.973-11.044,16.566-25.54,18.292A4.1,4.1,0,0,0,57.9,47.86v4.832a4.076,4.076,0,0,0,4.487,4.142c26.575-2.416,46.938-15.531,46.938-31.407,0-6.9-3.8-13.46-10.7-18.637A3.655,3.655,0,0,0,94.139,6.444Z" transform="translate(0.772 6.326)"/>
        <path id="Path_858" data-name="Path 858" class="cls-4" d="M63.334,25.324a12.826,12.826,0,0,1,2.761-7.593,4.15,4.15,0,0,0-1.035-6.212L56.086,6.342a4.244,4.244,0,0,0-4.487.345c-6.557,5.177-10.7,11.734-10.7,18.637,0,15.876,20.363,28.991,46.938,31.407a4.076,4.076,0,0,0,4.487-4.142V47.757a4.1,4.1,0,0,0-3.451-4.142C74.378,41.89,63.334,34.3,63.334,25.324Z" transform="translate(-40.9 6.428)"/>
      </g>
      <path id="Path_859" data-name="Path 859" class="cls-5" d="M58.371,11.183a9.15,9.15,0,0,1-1.726-2.071A4.377,4.377,0,0,1,56.3,7.042a4.377,4.377,0,0,1,.345-2.071A4.6,4.6,0,0,1,58.371,2.9,4.6,4.6,0,0,1,60.1,4.971a4.377,4.377,0,0,1,.345,2.071A4.377,4.377,0,0,1,60.1,9.112C59.406,9.8,59.061,10.493,58.371,11.183Z" transform="translate(10.31 7.109)"/>
      <path id="Path_860" data-name="Path 860" class="cls-5" d="M59.99,11.238a8.123,8.123,0,0,1-.69-2.761c0-.69.345-1.381.345-2.071a3.446,3.446,0,0,1,1.381-1.726A5.563,5.563,0,0,1,63.442,3.3a8.123,8.123,0,0,1,.69,2.761c0,.69-.345,1.381-.345,2.071a3.446,3.446,0,0,1-1.381,1.726A15.005,15.005,0,0,1,59.99,11.238Z" transform="translate(17.664 8.089)"/>
      <path id="Path_861" data-name="Path 861" class="cls-5" d="M61.9,11.2a6.5,6.5,0,0,1,.69-2.761,7.219,7.219,0,0,1,1.381-2.071A7.22,7.22,0,0,1,66.042,4.99,6.5,6.5,0,0,1,68.8,4.3a6.5,6.5,0,0,1-.69,2.761,7.22,7.22,0,0,1-1.381,2.071,7.528,7.528,0,0,1-1.726,1.381A8.243,8.243,0,0,1,61.9,11.2Z" transform="translate(24.038 10.541)"/>
      <path id="Path_862" data-name="Path 862" class="cls-5" d="M66.4,11.742a9.3,9.3,0,0,1,2.761-2.416,12.259,12.259,0,0,1,3.106-1.381A10.64,10.64,0,0,1,75.719,7.6a8.091,8.091,0,0,1,3.8.69,9.3,9.3,0,0,1-2.761,2.416,12.259,12.259,0,0,1-3.106,1.381,12.947,12.947,0,0,1-3.451.345A7.431,7.431,0,0,1,66.4,11.742Z" transform="translate(35.069 18.63)"/>
      <path id="Path_863" data-name="Path 863" class="cls-5" d="M67.3,12.461a11.487,11.487,0,0,1,3.451-2.071A12.262,12.262,0,0,1,74.2,9.7h3.451a16.824,16.824,0,0,1,3.8,1.381A11.487,11.487,0,0,1,78,13.151a12.262,12.262,0,0,1-3.451.69H71.1A12.363,12.363,0,0,1,67.3,12.461Z" transform="translate(37.275 23.778)"/>
      <path id="Path_864" data-name="Path 864" class="cls-5" d="M67.3,13.426a16.823,16.823,0,0,1,3.8-1.381,12.947,12.947,0,0,1,3.451-.345A12.263,12.263,0,0,1,78,12.39a16.122,16.122,0,0,1,3.451,1.726,16.823,16.823,0,0,1-3.8,1.381,12.947,12.947,0,0,1-3.451.345,12.262,12.262,0,0,1-3.451-.69A10.653,10.653,0,0,1,67.3,13.426Z" transform="translate(37.275 28.68)"/>
      <path id="Path_865" data-name="Path 865" class="cls-5" d="M66.6,14.39a7.431,7.431,0,0,1,3.8-.69,11.741,11.741,0,0,1,3.451.345,12.259,12.259,0,0,1,3.106,1.381,9.3,9.3,0,0,1,2.761,2.416,7.431,7.431,0,0,1-3.8.69,11.741,11.741,0,0,1-3.451-.345,12.26,12.26,0,0,1-3.106-1.381A9.3,9.3,0,0,1,66.6,14.39Z" transform="translate(35.559 33.583)"/>
      <path id="Path_866" data-name="Path 866" class="cls-5" d="M65.1,15.584a5.851,5.851,0,0,1,3.451,0,5.567,5.567,0,0,1,3.106,1.035,12.108,12.108,0,0,1,2.761,1.726,19.144,19.144,0,0,1,2.071,2.761,5.851,5.851,0,0,1-3.451,0,5.567,5.567,0,0,1-3.106-1.035,12.108,12.108,0,0,1-2.761-1.726A5.367,5.367,0,0,1,65.1,15.584Z" transform="translate(31.882 37.566)"/>
      <path id="Path_867" data-name="Path 867" class="cls-5" d="M62.9,16.6a8.569,8.569,0,0,1,3.106.345,5.563,5.563,0,0,1,2.416,1.381A9.151,9.151,0,0,1,70.148,20.4,6.552,6.552,0,0,1,71.183,23.5a8.569,8.569,0,0,1-3.106-.345,5.563,5.563,0,0,1-2.416-1.381,9.15,9.15,0,0,1-1.726-2.071A5.567,5.567,0,0,1,62.9,16.6Z" transform="translate(26.489 40.692)"/>
      <path id="Path_868" data-name="Path 868" class="cls-5" d="M60.445,17.3a16.828,16.828,0,0,1,2.416,1.035,3.446,3.446,0,0,1,1.381,1.726,4.906,4.906,0,0,1,.69,2.071,8.577,8.577,0,0,1-.345,2.761,16.828,16.828,0,0,1-2.416-1.035,3.446,3.446,0,0,1-1.381-1.726,4.905,4.905,0,0,1-.69-2.071A9.713,9.713,0,0,1,60.445,17.3Z" transform="translate(19.625 42.408)"/>
      <path id="Path_869" data-name="Path 869" class="cls-5" d="M57.142,11.483A5.563,5.563,0,0,1,54.726,10.1a6.059,6.059,0,0,1-1.381-1.726c0-.69-.345-1.726-.345-2.416A4.641,4.641,0,0,1,53.69,3.2a5.563,5.563,0,0,1,2.416,1.381c.345.69,1.035,1.381,1.035,2.071a4.378,4.378,0,0,1,.345,2.071A2.769,2.769,0,0,1,57.142,11.483Z" transform="translate(2.221 7.844)"/>
      <path id="Path_870" data-name="Path 870" class="cls-5" d="M56.7,11.2a6.5,6.5,0,0,1-2.761-.69c-.69-.345-1.381-1.035-2.071-1.381A7.22,7.22,0,0,1,50.49,7.061,6.5,6.5,0,0,1,49.8,4.3a6.5,6.5,0,0,1,2.761.69c.69.345,1.381,1.035,2.071,1.381a7.22,7.22,0,0,1,1.381,2.071A5.346,5.346,0,0,1,56.7,11.2Z" transform="translate(-5.623 10.541)"/>
      <path id="Path_871" data-name="Path 871" class="cls-5" d="M56.37,11.742a6.826,6.826,0,0,1-3.451.69c-1.035,0-2.416-.345-3.451-.345a12.26,12.26,0,0,1-3.106-1.381A9.3,9.3,0,0,1,43.6,8.29a7.431,7.431,0,0,1,3.8-.69c1.035,0,2.416.345,3.451.345a12.26,12.26,0,0,1,3.106,1.381A15.945,15.945,0,0,1,56.37,11.742Z" transform="translate(-20.821 18.63)"/>
      <path id="Path_872" data-name="Path 872" class="cls-5" d="M56.45,12.645a16.824,16.824,0,0,1-3.8,1.381,5.851,5.851,0,0,1-3.451,0,12.262,12.262,0,0,1-3.451-.69A9.2,9.2,0,0,1,42.3,11.264a16.824,16.824,0,0,1,3.8-1.381,5.851,5.851,0,0,1,3.451,0,12.262,12.262,0,0,1,3.451.69A11.487,11.487,0,0,1,56.45,12.645Z" transform="translate(-24.008 23.594)"/>
      <path id="Path_873" data-name="Path 873" class="cls-5" d="M56.45,13.426A8.127,8.127,0,0,1,53,15.151a12.262,12.262,0,0,1-3.451.69A11.741,11.741,0,0,1,46.1,15.5a16.823,16.823,0,0,1-3.8-1.381,8.127,8.127,0,0,1,3.451-1.726A12.262,12.262,0,0,1,49.2,11.7a11.741,11.741,0,0,1,3.451.345A16.824,16.824,0,0,1,56.45,13.426Z" transform="translate(-24.008 28.68)"/>
      <path id="Path_874" data-name="Path 874" class="cls-5" d="M56.415,14.39a17.285,17.285,0,0,1-2.761,2.416,12.259,12.259,0,0,1-3.106,1.381,10.64,10.64,0,0,1-3.451.345,17.808,17.808,0,0,1-3.8-.69,17.285,17.285,0,0,1,2.761-2.416,12.259,12.259,0,0,1,3.106-1.381,10.64,10.64,0,0,1,3.451-.345A6.827,6.827,0,0,1,56.415,14.39Z" transform="translate(-21.557 33.583)"/>
      <path id="Path_875" data-name="Path 875" class="cls-5" d="M56.789,15.584a9.529,9.529,0,0,1-2.071,2.761,7.515,7.515,0,0,1-2.761,1.726l-3.106,1.035a11.5,11.5,0,0,1-3.451,0,9.529,9.529,0,0,1,2.071-2.761,7.515,7.515,0,0,1,2.761-1.726l3.106-1.035A5.851,5.851,0,0,1,56.789,15.584Z" transform="translate(-16.409 37.566)"/>
      <path id="Path_876" data-name="Path 876" class="cls-5" d="M56.683,16.7c0,1.381-.69,2.071-1.035,3.106a9.15,9.15,0,0,1-1.726,2.071,5.563,5.563,0,0,1-2.416,1.381A4.614,4.614,0,0,1,48.4,23.6c0-1.381.69-2.071,1.035-3.106a9.151,9.151,0,0,1,1.726-2.071,5.563,5.563,0,0,1,2.416-1.381A4.873,4.873,0,0,1,56.683,16.7Z" transform="translate(-9.055 40.59)"/>
      <path id="Path_877" data-name="Path 877" class="cls-5" d="M56.687,17.3a8.577,8.577,0,0,1,.345,2.761,4.905,4.905,0,0,1-.69,2.071,7.528,7.528,0,0,1-1.381,1.726,5.153,5.153,0,0,1-2.416,1.035,8.578,8.578,0,0,1-.345-2.761,4.905,4.905,0,0,1,.69-2.071,7.528,7.528,0,0,1,1.381-1.726A8.247,8.247,0,0,1,56.687,17.3Z" transform="translate(0.26 42.408)"/>
    </g>
    <g id="Group_65" data-name="Group 65" transform="translate(255.742 60.743)">
      <path id="Path_878" data-name="Path 878" class="cls-1" d="M207.321,47.73c-9.664-15.186-34.858-26.23-64.54-26.23S87.56,32.544,78.242,47.73H74.1V61.19c0,21.743,30.717,39.69,68.681,39.69s68.681-17.6,68.681-39.69V47.73Z" transform="translate(-74.1 -8.04)"/>
      <ellipse id="Ellipse_193" data-name="Ellipse 193" class="cls-2" cx="68.681" cy="39.69" rx="68.681" ry="39.69"/>
      <ellipse id="Ellipse_194" data-name="Ellipse 194" class="cls-3" cx="32.787" cy="18.982" rx="32.787" ry="18.982" transform="translate(35.894 20.708)"/>
      <g id="Group_64" data-name="Group 64" transform="translate(13.805 8.283)">
        <path id="Path_879" data-name="Path 879" class="cls-4" d="M115.368,32.77a47.069,47.069,0,0,1,17.6,3.106,4.084,4.084,0,0,0,3.451-.345l6.9-3.8c3.106-1.726,2.761-6.557-.69-7.593A83.782,83.782,0,0,0,115.368,20,85.277,85.277,0,0,0,88.1,24.142c-3.451,1.035-3.8,5.867-.69,7.593l6.9,3.8a4.084,4.084,0,0,0,3.451.345A48.365,48.365,0,0,1,115.368,32.77Z" transform="translate(-60.492 -20)"/>
        <path id="Path_880" data-name="Path 880" class="cls-4" d="M131.339,23.942l-8.973,5.177a4.15,4.15,0,0,0-1.035,6.212,12.826,12.826,0,0,1,2.761,7.593c0,8.973-11.044,16.566-25.54,18.292A4.1,4.1,0,0,0,95.1,65.357v4.832a4.076,4.076,0,0,0,4.487,4.142c26.575-2.416,46.938-15.531,46.938-31.407,0-6.9-3.8-13.46-10.7-18.637A4.244,4.244,0,0,0,131.339,23.942Z" transform="translate(-36.428 -11.517)"/>
        <path id="Path_881" data-name="Path 881" class="cls-4" d="M100.533,42.924a12.826,12.826,0,0,1,2.761-7.593,4.15,4.15,0,0,0-1.035-6.212l-8.973-5.177a4.244,4.244,0,0,0-4.487.345c-6.558,5.177-10.7,11.734-10.7,18.637,0,15.876,20.363,28.991,46.938,31.407a4.076,4.076,0,0,0,4.487-4.142V65.357a4.1,4.1,0,0,0-3.451-4.142C111.233,59.49,100.533,51.9,100.533,42.924Z" transform="translate(-78.1 -11.517)"/>
      </g>
      <path id="Path_882" data-name="Path 882" class="cls-5" d="M95.471,28.883a9.15,9.15,0,0,1-1.726-2.071,4.377,4.377,0,0,1-.345-2.071,4.377,4.377,0,0,1,.345-2.071A4.6,4.6,0,0,1,95.471,20.6,4.6,4.6,0,0,1,97.2,22.671a4.377,4.377,0,0,1,.345,2.071,4.377,4.377,0,0,1-.345,2.071A4.6,4.6,0,0,1,95.471,28.883Z" transform="translate(-26.79 -10.246)"/>
      <path id="Path_883" data-name="Path 883" class="cls-5" d="M97.19,28.838a8.122,8.122,0,0,1-.69-2.761c0-.69.345-1.381.345-2.071a3.446,3.446,0,0,1,1.381-1.726,5.563,5.563,0,0,1,2.416-1.381,8.122,8.122,0,0,1,.69,2.761c0,.69-.345,1.381-.345,2.071a3.446,3.446,0,0,1-1.381,1.726A5.562,5.562,0,0,1,97.19,28.838Z" transform="translate(-19.191 -9.511)"/>
      <path id="Path_884" data-name="Path 884" class="cls-5" d="M99.1,28.8a6.5,6.5,0,0,1,.69-2.761,6.345,6.345,0,0,1,3.451-3.451A6.5,6.5,0,0,1,106,21.9a6.5,6.5,0,0,1-.69,2.761,7.219,7.219,0,0,1-1.381,2.071,7.221,7.221,0,0,1-2.071,1.381A6.5,6.5,0,0,1,99.1,28.8Z" transform="translate(-12.817 -7.059)"/>
      <path id="Path_885" data-name="Path 885" class="cls-5" d="M103.6,29.442a9.3,9.3,0,0,1,2.761-2.416,12.26,12.26,0,0,1,3.106-1.381,10.64,10.64,0,0,1,3.451-.345,8.091,8.091,0,0,1,3.8.69,9.3,9.3,0,0,1-2.761,2.416,12.259,12.259,0,0,1-3.106,1.381,10.64,10.64,0,0,1-3.451.345A12.407,12.407,0,0,1,103.6,29.442Z" transform="translate(-1.786 1.275)"/>
      <path id="Path_886" data-name="Path 886" class="cls-5" d="M104.4,30.061a11.488,11.488,0,0,1,3.451-2.071,12.263,12.263,0,0,1,3.451-.69h3.451a16.824,16.824,0,0,1,3.8,1.381,11.487,11.487,0,0,1-3.451,2.071,12.263,12.263,0,0,1-3.451.69H108.2A26.217,26.217,0,0,1,104.4,30.061Z" transform="translate(0.175 6.178)"/>
      <path id="Path_887" data-name="Path 887" class="cls-5" d="M104.5,31.126a16.824,16.824,0,0,1,3.8-1.381,12.947,12.947,0,0,1,3.451-.345,12.262,12.262,0,0,1,3.451.69,16.121,16.121,0,0,1,3.451,1.726,16.823,16.823,0,0,1-3.8,1.381,12.947,12.947,0,0,1-3.451.345,12.262,12.262,0,0,1-3.451-.69A16.121,16.121,0,0,1,104.5,31.126Z" transform="translate(0.42 11.325)"/>
      <path id="Path_888" data-name="Path 888" class="cls-5" d="M103.8,31.99a7.431,7.431,0,0,1,3.8-.69,11.741,11.741,0,0,1,3.451.345,12.26,12.26,0,0,1,3.106,1.381,9.3,9.3,0,0,1,2.761,2.416,7.431,7.431,0,0,1-3.8.69,11.742,11.742,0,0,1-3.451-.345,12.259,12.259,0,0,1-3.106-1.381A9.3,9.3,0,0,1,103.8,31.99Z" transform="translate(-1.296 15.983)"/>
      <path id="Path_889" data-name="Path 889" class="cls-5" d="M102.2,33.184a5.851,5.851,0,0,1,3.451,0,5.567,5.567,0,0,1,3.106,1.035,12.107,12.107,0,0,1,2.761,1.726,19.143,19.143,0,0,1,2.071,2.761,5.851,5.851,0,0,1-3.451,0,5.567,5.567,0,0,1-3.106-1.035,12.107,12.107,0,0,1-2.761-1.726A9.529,9.529,0,0,1,102.2,33.184Z" transform="translate(-5.218 19.966)"/>
      <path id="Path_890" data-name="Path 890" class="cls-5" d="M100,34.2a8.569,8.569,0,0,1,3.106.345,5.563,5.563,0,0,1,2.416,1.381A9.151,9.151,0,0,1,107.248,38a6.552,6.552,0,0,1,1.035,3.106,8.569,8.569,0,0,1-3.106-.345,5.562,5.562,0,0,1-2.416-1.381,9.15,9.15,0,0,1-1.726-2.071Z" transform="translate(-10.611 23.092)"/>
      <path id="Path_891" data-name="Path 891" class="cls-5" d="M97.645,35a16.825,16.825,0,0,1,2.416,1.035,3.446,3.446,0,0,1,1.381,1.726,4.905,4.905,0,0,1,.69,2.071,8.577,8.577,0,0,1-.345,2.761,16.827,16.827,0,0,1-2.416-1.035,3.446,3.446,0,0,1-1.381-1.726,4.905,4.905,0,0,1-.69-2.071A7.6,7.6,0,0,1,97.645,35Z" transform="translate(-17.23 25.053)"/>
      <path id="Path_892" data-name="Path 892" class="cls-5" d="M94.342,28.838a5.563,5.563,0,0,1-2.416-1.381,6.059,6.059,0,0,1-1.381-1.726,4.377,4.377,0,0,1-.345-2.071,4.641,4.641,0,0,1,.69-2.761,5.563,5.563,0,0,1,2.416,1.381,6.059,6.059,0,0,1,1.381,1.726,4.377,4.377,0,0,1,.345,2.071A8.123,8.123,0,0,1,94.342,28.838Z" transform="translate(-34.634 -9.511)"/>
      <path id="Path_893" data-name="Path 893" class="cls-5" d="M93.9,28.8a6.5,6.5,0,0,1-2.761-.69c-.69-.345-1.381-1.035-2.071-1.381a7.22,7.22,0,0,1-1.381-2.071A6.5,6.5,0,0,1,87,21.9a6.5,6.5,0,0,1,2.761.69c.69.345,1.381,1.035,2.071,1.381a7.22,7.22,0,0,1,1.381,2.071A6.5,6.5,0,0,1,93.9,28.8Z" transform="translate(-42.478 -7.059)"/>
      <path id="Path_894" data-name="Path 894" class="cls-5" d="M93.815,29.442a7.431,7.431,0,0,1-3.8.69c-1.035,0-2.416-.345-3.451-.345a12.259,12.259,0,0,1-3.106-1.381A9.3,9.3,0,0,1,80.7,25.99a7.431,7.431,0,0,1,3.8-.69c1.035,0,2.416.345,3.451.345a12.259,12.259,0,0,1,3.106,1.381A5.8,5.8,0,0,1,93.815,29.442Z" transform="translate(-57.921 1.275)"/>
      <path id="Path_895" data-name="Path 895" class="cls-5" d="M93.65,30.245a16.824,16.824,0,0,1-3.8,1.381,5.851,5.851,0,0,1-3.451,0,12.263,12.263,0,0,1-3.451-.69A9.2,9.2,0,0,1,79.5,28.864a16.824,16.824,0,0,1,3.8-1.381,5.851,5.851,0,0,1,3.451,0,12.263,12.263,0,0,1,3.451.69A11.487,11.487,0,0,1,93.65,30.245Z" transform="translate(-60.863 5.994)"/>
      <path id="Path_896" data-name="Path 896" class="cls-5" d="M93.55,31.126A8.127,8.127,0,0,1,90.1,32.851a12.262,12.262,0,0,1-3.451.69A11.741,11.741,0,0,1,83.2,33.2a16.823,16.823,0,0,1-3.8-1.381,8.126,8.126,0,0,1,3.451-1.726A12.262,12.262,0,0,1,86.3,29.4a11.741,11.741,0,0,1,3.451.345A5.19,5.19,0,0,1,93.55,31.126Z" transform="translate(-61.108 11.325)"/>
      <path id="Path_897" data-name="Path 897" class="cls-5" d="M93.615,31.99a17.286,17.286,0,0,1-2.761,2.416,12.259,12.259,0,0,1-3.106,1.381,10.64,10.64,0,0,1-3.451.345,17.808,17.808,0,0,1-3.8-.69,17.286,17.286,0,0,1,2.761-2.416,12.259,12.259,0,0,1,3.106-1.381,10.64,10.64,0,0,1,3.451-.345A14.678,14.678,0,0,1,93.615,31.99Z" transform="translate(-58.412 15.983)"/>
      <path id="Path_898" data-name="Path 898" class="cls-5" d="M93.889,33.184a9.528,9.528,0,0,1-2.071,2.761,7.514,7.514,0,0,1-2.761,1.726l-3.106,1.035a11.505,11.505,0,0,1-3.451,0,9.529,9.529,0,0,1,2.071-2.761,7.514,7.514,0,0,1,2.761-1.726l3.106-1.035A5.882,5.882,0,0,1,93.889,33.184Z" transform="translate(-53.509 19.966)"/>
      <path id="Path_899" data-name="Path 899" class="cls-5" d="M93.883,34.2c0,1.381-.69,2.071-1.035,3.106a9.149,9.149,0,0,1-1.726,2.071,5.563,5.563,0,0,1-2.416,1.381A4.614,4.614,0,0,1,85.6,41.1c0-1.381.69-2.071,1.035-3.106a9.15,9.15,0,0,1,1.726-2.071,5.563,5.563,0,0,1,2.416-1.381A8.569,8.569,0,0,1,93.883,34.2Z" transform="translate(-45.91 23.092)"/>
      <path id="Path_900" data-name="Path 900" class="cls-5" d="M93.887,35a8.577,8.577,0,0,1,.345,2.761,4.906,4.906,0,0,1-.69,2.071,7.528,7.528,0,0,1-1.381,1.726,5.153,5.153,0,0,1-2.416,1.035,8.577,8.577,0,0,1-.345-2.761,4.906,4.906,0,0,1,.69-2.071,7.528,7.528,0,0,1,1.381-1.726A3.155,3.155,0,0,1,93.887,35Z" transform="translate(-36.595 25.053)"/>
    </g>
    <g id="Group_67" data-name="Group 67" transform="translate(0 60.743)">
      <path id="Path_901" data-name="Path 901" class="cls-1" d="M4.142,47.73C13.805,32.544,39,21.5,68.681,21.5s55.221,11.044,64.54,26.23h4.142V61.19c0,21.743-30.717,39.69-68.681,39.69S0,83.278,0,61.19V47.73Z" transform="translate(0 -8.04)"/>
      <ellipse id="Ellipse_195" data-name="Ellipse 195" class="cls-2" cx="68.681" cy="39.69" rx="68.681" ry="39.69" transform="translate(0)"/>
      <ellipse id="Ellipse_196" data-name="Ellipse 196" class="cls-3" cx="32.787" cy="18.982" rx="32.787" ry="18.982" transform="translate(35.894 20.708)"/>
      <g id="Group_66" data-name="Group 66" transform="translate(13.805 8.283)">
        <path id="Path_902" data-name="Path 902" class="cls-4" d="M41.268,32.77a47.069,47.069,0,0,0-17.6,3.106,4.084,4.084,0,0,1-3.451-.345l-6.9-3.8c-3.106-1.726-2.761-6.557.69-7.593A83.782,83.782,0,0,1,41.268,20a85.277,85.277,0,0,1,27.265,4.142c3.451,1.035,3.8,5.867.69,7.593l-6.9,3.8a4.084,4.084,0,0,1-3.451.345A47.069,47.069,0,0,0,41.268,32.77Z" transform="translate(13.608 -20)"/>
        <path id="Path_903" data-name="Path 903" class="cls-4" d="M19.186,23.942l8.973,5.177a4.15,4.15,0,0,1,1.035,6.212,12.826,12.826,0,0,0-2.761,7.593c0,8.973,11.044,16.566,25.54,18.292a4.1,4.1,0,0,1,3.451,4.142v4.832a4.076,4.076,0,0,1-4.487,4.142C24.363,72.26,4,58.8,4,42.924c0-6.9,3.8-13.46,10.7-18.637C15.734,23.251,17.805,23.251,19.186,23.942Z" transform="translate(-4 -11.517)"/>
        <path id="Path_904" data-name="Path 904" class="cls-4" d="M49.991,42.924a12.826,12.826,0,0,0-2.761-7.593,4.15,4.15,0,0,1,1.035-6.212l8.973-5.177a4.244,4.244,0,0,1,4.487.345c6.558,5.177,10.7,11.734,10.7,18.637,0,15.876-20.363,28.991-46.938,31.407A4.076,4.076,0,0,1,21,70.189V65.357a4.1,4.1,0,0,1,3.451-4.142C38.947,59.49,49.991,51.9,49.991,42.924Z" transform="translate(37.672 -11.517)"/>
      </g>
      <path id="Path_905" data-name="Path 905" class="cls-5" d="M21.371,28.883a9.15,9.15,0,0,1-1.726-2.071,4.377,4.377,0,0,1-.345-2.071,4.377,4.377,0,0,1,.345-2.071A4.6,4.6,0,0,1,21.371,20.6,4.6,4.6,0,0,1,23.1,22.671a4.377,4.377,0,0,1,.345,2.071,4.377,4.377,0,0,1-.345,2.071A4.6,4.6,0,0,1,21.371,28.883Z" transform="translate(47.31 -10.246)"/>
      <path id="Path_906" data-name="Path 906" class="cls-5" d="M20.242,28.838a5.563,5.563,0,0,1-2.416-1.381,6.059,6.059,0,0,1-1.381-1.726,4.377,4.377,0,0,1-.345-2.071,4.641,4.641,0,0,1,.69-2.761,5.563,5.563,0,0,1,2.416,1.381,6.059,6.059,0,0,1,1.381,1.726,4.377,4.377,0,0,1,.345,2.071C20.587,27.112,20.587,27.8,20.242,28.838Z" transform="translate(39.466 -9.511)"/>
      <path id="Path_907" data-name="Path 907" class="cls-5" d="M19.7,28.8a6.5,6.5,0,0,1-2.761-.69c-.69-.345-1.381-1.035-2.071-1.381a7.22,7.22,0,0,1-1.381-2.071A6.5,6.5,0,0,1,12.8,21.9a6.5,6.5,0,0,1,2.761.69c.69.345,1.381,1.035,2.071,1.381a7.22,7.22,0,0,1,1.381,2.071A2.684,2.684,0,0,1,19.7,28.8Z" transform="translate(31.377 -7.059)"/>
      <path id="Path_908" data-name="Path 908" class="cls-5" d="M19.715,29.442a7.431,7.431,0,0,1-3.8.69c-1.035,0-2.416-.345-3.451-.345a12.259,12.259,0,0,1-3.106-1.381A9.3,9.3,0,0,1,6.6,25.99a7.431,7.431,0,0,1,3.8-.69c1.035,0,2.416.345,3.451.345a12.259,12.259,0,0,1,3.106,1.381A7.939,7.939,0,0,1,19.715,29.442Z" transform="translate(16.179 1.275)"/>
      <path id="Path_909" data-name="Path 909" class="cls-5" d="M19.55,30.245a16.824,16.824,0,0,1-3.8,1.381,5.851,5.851,0,0,1-3.451,0,12.262,12.262,0,0,1-3.451-.69A9.2,9.2,0,0,1,5.4,28.864a16.823,16.823,0,0,1,3.8-1.381,5.851,5.851,0,0,1,3.451,0,12.262,12.262,0,0,1,3.451.69C17.134,28.864,18.515,29.21,19.55,30.245Z" transform="translate(13.237 5.994)"/>
      <path id="Path_910" data-name="Path 910" class="cls-5" d="M19.45,31.126A8.127,8.127,0,0,1,16,32.851a12.262,12.262,0,0,1-3.451.69A11.741,11.741,0,0,1,9.1,33.2a16.824,16.824,0,0,1-3.8-1.381A8.127,8.127,0,0,1,8.751,30.09,12.262,12.262,0,0,1,12.2,29.4a11.741,11.741,0,0,1,3.451.345A5.19,5.19,0,0,1,19.45,31.126Z" transform="translate(12.992 11.325)"/>
      <path id="Path_911" data-name="Path 911" class="cls-5" d="M19.515,31.99a17.286,17.286,0,0,1-2.761,2.416,12.259,12.259,0,0,1-3.106,1.381,10.64,10.64,0,0,1-3.451.345,17.808,17.808,0,0,1-3.8-.69,17.285,17.285,0,0,1,2.761-2.416,12.259,12.259,0,0,1,3.106-1.381,10.64,10.64,0,0,1,3.451-.345A14.678,14.678,0,0,1,19.515,31.99Z" transform="translate(15.688 15.983)"/>
      <path id="Path_912" data-name="Path 912" class="cls-5" d="M19.789,33.184a9.529,9.529,0,0,1-2.071,2.761,7.515,7.515,0,0,1-2.761,1.726l-3.106,1.035a11.505,11.505,0,0,1-3.451,0,9.529,9.529,0,0,1,2.071-2.761,7.515,7.515,0,0,1,2.761-1.726l3.106-1.035A5.851,5.851,0,0,1,19.789,33.184Z" transform="translate(20.591 19.966)"/>
      <path id="Path_913" data-name="Path 913" class="cls-5" d="M19.783,34.2c0,1.381-.69,2.071-1.035,3.106a9.15,9.15,0,0,1-1.726,2.071,5.563,5.563,0,0,1-2.416,1.381A4.614,4.614,0,0,1,11.5,41.1c0-1.381.69-2.071,1.035-3.106a9.151,9.151,0,0,1,1.726-2.071,5.563,5.563,0,0,1,2.416-1.381A8.569,8.569,0,0,1,19.783,34.2Z" transform="translate(28.19 23.092)"/>
      <path id="Path_914" data-name="Path 914" class="cls-5" d="M19.687,35a8.577,8.577,0,0,1,.345,2.761,4.905,4.905,0,0,1-.69,2.071,7.529,7.529,0,0,1-1.381,1.726,5.154,5.154,0,0,1-2.416,1.035,8.577,8.577,0,0,1-.345-2.761,4.905,4.905,0,0,1,.69-2.071,7.528,7.528,0,0,1,1.381-1.726A5.154,5.154,0,0,1,19.687,35Z" transform="translate(37.26 25.053)"/>
      <path id="Path_915" data-name="Path 915" class="cls-5" d="M22.99,28.838a8.123,8.123,0,0,1-.69-2.761c0-.69.345-1.381.345-2.071a3.446,3.446,0,0,1,1.381-1.726A5.563,5.563,0,0,1,26.442,20.9a8.122,8.122,0,0,1,.69,2.761c0,.69-.345,1.381-.345,2.071a3.446,3.446,0,0,1-1.381,1.726C25.061,28.148,24.371,28.493,22.99,28.838Z" transform="translate(54.664 -9.511)"/>
      <path id="Path_916" data-name="Path 916" class="cls-5" d="M25,28.8a6.5,6.5,0,0,1,.69-2.761,6.345,6.345,0,0,1,3.451-3.451A6.5,6.5,0,0,1,31.9,21.9a6.5,6.5,0,0,1-.69,2.761,7.22,7.22,0,0,1-1.381,2.071,7.22,7.22,0,0,1-2.071,1.381A6.5,6.5,0,0,1,25,28.8Z" transform="translate(61.283 -7.059)"/>
      <path id="Path_917" data-name="Path 917" class="cls-5" d="M29.4,29.442a9.3,9.3,0,0,1,2.761-2.416,12.259,12.259,0,0,1,3.106-1.381,10.64,10.64,0,0,1,3.451-.345,8.091,8.091,0,0,1,3.8.69,9.3,9.3,0,0,1-2.761,2.416,12.259,12.259,0,0,1-3.106,1.381,10.64,10.64,0,0,1-3.451.345A17.809,17.809,0,0,1,29.4,29.442Z" transform="translate(72.069 1.275)"/>
      <path id="Path_918" data-name="Path 918" class="cls-5" d="M30.3,30.061a11.487,11.487,0,0,1,3.451-2.071A12.262,12.262,0,0,1,37.2,27.3h3.451a16.823,16.823,0,0,1,3.8,1.381A11.487,11.487,0,0,1,41,30.751a12.262,12.262,0,0,1-3.451.69H34.1A26.216,26.216,0,0,1,30.3,30.061Z" transform="translate(74.275 6.178)"/>
      <path id="Path_919" data-name="Path 919" class="cls-5" d="M30.4,31.126a16.824,16.824,0,0,1,3.8-1.381,12.947,12.947,0,0,1,3.451-.345,12.262,12.262,0,0,1,3.451.69,16.121,16.121,0,0,1,3.451,1.726,16.824,16.824,0,0,1-3.8,1.381,12.947,12.947,0,0,1-3.451.345,12.262,12.262,0,0,1-3.451-.69A16.121,16.121,0,0,1,30.4,31.126Z" transform="translate(74.52 11.325)"/>
      <path id="Path_920" data-name="Path 920" class="cls-5" d="M29.6,31.99a7.431,7.431,0,0,1,3.8-.69,11.741,11.741,0,0,1,3.451.345,12.26,12.26,0,0,1,3.106,1.381,9.3,9.3,0,0,1,2.761,2.416,7.431,7.431,0,0,1-3.8.69,11.742,11.742,0,0,1-3.451-.345,12.259,12.259,0,0,1-3.106-1.381C31.671,33.716,30.635,33.026,29.6,31.99Z" transform="translate(72.559 15.983)"/>
      <path id="Path_921" data-name="Path 921" class="cls-5" d="M28.1,33.184a5.851,5.851,0,0,1,3.451,0,5.567,5.567,0,0,1,3.106,1.035,12.107,12.107,0,0,1,2.761,1.726,19.145,19.145,0,0,1,2.071,2.761,5.851,5.851,0,0,1-3.451,0,5.567,5.567,0,0,1-3.106-1.035,12.108,12.108,0,0,1-2.761-1.726A9.529,9.529,0,0,1,28.1,33.184Z" transform="translate(68.882 19.966)"/>
      <path id="Path_922" data-name="Path 922" class="cls-5" d="M25.9,34.2a8.569,8.569,0,0,1,3.106.345,5.563,5.563,0,0,1,2.416,1.381A9.151,9.151,0,0,1,33.148,38,6.552,6.552,0,0,1,34.183,41.1a8.569,8.569,0,0,1-3.106-.345,5.563,5.563,0,0,1-2.416-1.381,9.151,9.151,0,0,1-1.726-2.071Z" transform="translate(63.489 23.092)"/>
      <path id="Path_923" data-name="Path 923" class="cls-5" d="M23.545,35a16.827,16.827,0,0,1,2.416,1.035,3.446,3.446,0,0,1,1.381,1.726,4.905,4.905,0,0,1,.69,2.071,8.577,8.577,0,0,1-.345,2.761,16.827,16.827,0,0,1-2.416-1.035,3.446,3.446,0,0,1-1.381-1.726,4.905,4.905,0,0,1-.69-2.071A7.6,7.6,0,0,1,23.545,35Z" transform="translate(56.87 25.053)"/>
    </g>
  </g>
</svg>
